<?xml version="1.0" encoding="UTF-8" standalone="no"?>
<!-- Created with Inkscape (http://www.inkscape.org/) -->

<svg
   width="210mm"
   height="297mm"
   viewBox="0 0 210 297"
   version="1.1"
   id="svg1"
   xml:space="preserve"
   inkscape:export-filename="Eath Logo V2\Eath JPEG.jpg"
   inkscape:export-xdpi="300"
   inkscape:export-ydpi="300"
   sodipodi:docname="Logo svg.svg"
   inkscape:version="1.3.2 (091e20e, 2023-11-25, custom)"
   xmlns:inkscape="http://www.inkscape.org/namespaces/inkscape"
   xmlns:sodipodi="http://sodipodi.sourceforge.net/DTD/sodipodi-0.dtd"
   xmlns="http://www.w3.org/2000/svg"
   xmlns:svg="http://www.w3.org/2000/svg"><sodipodi:namedview
     id="namedview1"
     pagecolor="#ffffff"
     bordercolor="#666666"
     borderopacity="1.0"
     inkscape:showpageshadow="2"
     inkscape:pageopacity="0.0"
     inkscape:pagecheckerboard="0"
     inkscape:deskcolor="#d1d1d1"
     inkscape:document-units="mm"
     inkscape:zoom="1.4142136"
     inkscape:cx="347.18942"
     inkscape:cy="632.507"
     inkscape:window-width="1920"
     inkscape:window-height="974"
     inkscape:window-x="-11"
     inkscape:window-y="-11"
     inkscape:window-maximized="1"
     inkscape:current-layer="layer1"
     inkscape:export-bgcolor="#ffffffff" /><defs
     id="defs1"><rect
       x="385"
       y="694"
       width="411"
       height="238"
       id="rect59" /></defs><g
     inkscape:label="Calque 1"
     inkscape:groupmode="layer"
     id="layer1"><text
       xml:space="preserve"
       transform="matrix(0.35115894,0,0,0.34517827,-43.008936,-142.17537)"
       id="text58"
       style="font-style:normal;font-variant:normal;font-weight:normal;font-stretch:normal;font-size:192px;line-height:1.25;font-family:'Century Gothic';-inkscape-font-specification:'Century Gothic';letter-spacing:0px;word-spacing:0px;white-space:pre;shape-inside:url(#rect59);display:inline;fill:#7dc242;fill-opacity:1;stroke:none"><tspan
         x="385"
         y="868.31193"
         id="tspan3"><tspan
           style="font-weight:500;font-size:106.667px;font-family:'Helvetica Neue';-inkscape-font-specification:'Helvetica Neue Medium'"
           id="tspan1">eath</tspan></tspan></text><path
       style="opacity:0;fill:none;stroke:#000000;stroke-width:0.28777px;stroke-linecap:butt;stroke-linejoin:miter;stroke-opacity:1"
       d="m 71.39287,163.2465 c 0.697594,-2.38844 2.19205,-4.14407 5.322181,-4.60076 3.763,0.41748 4.69213,2.60318 5.405335,4.92363 -4.687295,1.36146 -10.54166,1.06055 -10.727516,-0.32287 z"
       id="path53-9"
       sodipodi:nodetypes="cccc" /><path
       style="fill:#ffffff;fill-opacity:1;stroke:#916caf;stroke-width:4.06335;stroke-dasharray:none;stroke-opacity:1"
       id="path60-1"
       sodipodi:type="arc"
       sodipodi:cx="67.079926"
       sodipodi:cy="146.80104"
       sodipodi:rx="20.697803"
       sodipodi:ry="21.693121"
       sodipodi:start="0.26575131"
       sodipodi:end="0.26570848"
       sodipodi:open="true"
       sodipodi:arc-type="arc"
       d="M 87.051142,152.4984 A 20.697803,21.693121 0 0 1 61.644187,167.7327 20.697803,21.693121 0 0 1 47.108593,141.10413 20.697803,21.693121 0 0 1 72.515237,125.86926 20.697803,21.693121 0 0 1 87.051375,152.4975" /><rect
       style="fill:#ffffff;fill-opacity:1;stroke:#916caf;stroke-width:3.37167;stroke-linejoin:round;stroke-dasharray:none;stroke-opacity:1"
       id="rect61-8"
       width="40.586262"
       height="1.8514944"
       x="46.769207"
       y="144.2778"
       ry="0" /><rect
       style="fill:#faf8f8;fill-opacity:1;stroke:#ffffff;stroke-width:2.732;stroke-linejoin:round;stroke-dasharray:none;stroke-opacity:1"
       id="rect62-2"
       width="51.303413"
       height="1.4794289"
       x="40.787624"
       y="148.56877"
       ry="0" /><g
       id="g1"><path
         style="fill:#916caf;fill-opacity:1;stroke:#916caf;stroke-width:0.360744px;stroke-linecap:butt;stroke-linejoin:miter;stroke-opacity:1"
         d="m 58.884516,132.40405 c -2.979845,1.8114 -4.66023,4.36492 -6.106997,6.77392 l 3.259631,-0.007 c 0.283191,-1.26735 1.650122,-4.33578 2.847366,-6.76759 z"
         id="path65-0"
         sodipodi:nodetypes="cccc" /></g><path
       style="fill:#000000;fill-opacity:1;stroke:#916caf;stroke-width:3.44227;stroke-linejoin:round;stroke-dasharray:none;stroke-opacity:1"
       id="path66-7"
       sodipodi:type="arc"
       sodipodi:cx="67.376564"
       sodipodi:cy="120.15423"
       sodipodi:rx="1.7999991"
       sodipodi:ry="0.86853188"
       sodipodi:start="0.26575131"
       sodipodi:end="0.26570848"
       sodipodi:open="true"
       sodipodi:arc-type="arc"
       d="m 69.113375,120.38233 a 1.7999991,0.86853188 0 0 1 -2.209534,0.60994 1.7999991,0.86853188 0 0 1 -1.264098,-1.06613 1.7999991,0.86853188 0 0 1 2.209507,-0.60996 1.7999991,0.86853188 0 0 1 1.264145,1.06612" /><rect
       style="fill:#000000;fill-opacity:1;stroke:#916caf;stroke-width:1.16155;stroke-linejoin:miter;stroke-dasharray:none;stroke-opacity:1"
       id="rect67-6"
       width="0.57569677"
       height="0.46492741"
       x="66.982697"
       y="122.14014" /><path
       style="fill:#ffffff;fill-opacity:1;stroke:#ffffff;stroke-width:0.28777px;stroke-linecap:butt;stroke-linejoin:miter;stroke-opacity:1"
       d="m 65.673142,121.07479 c -1.437008,-1.29781 -0.133692,-2.23561 0.630266,-2.46909 0,0 -0.690652,0.80296 -0.795485,1.21496 -0.104833,0.41199 0.0468,0.70398 0.165219,1.25413 z"
       id="path67-1"
       sodipodi:nodetypes="cczc" /></g></svg>
